<svg width="169" height="50" viewBox="0 0 169 50" fill="none" xmlns="http://www.w3.org/2000/svg">
<path d="M42.9785 33V18.7227H44.6387V31.4961H50.9375V33H42.9785ZM57.6465 33.1953C56.0645 33.1953 54.8145 32.7135 53.8965 31.75C52.985 30.7865 52.5293 29.4486 52.5293 27.7363C52.5293 26.0111 52.9525 24.6406 53.7988 23.625C54.6517 22.6094 55.7943 22.1016 57.2266 22.1016C58.5677 22.1016 59.6289 22.5443 60.4102 23.4297C61.1914 24.3086 61.582 25.4707 61.582 26.916V27.9414H54.209C54.2415 29.1979 54.5573 30.1517 55.1562 30.8027C55.7617 31.4538 56.6113 31.7793 57.7051 31.7793C58.8574 31.7793 59.9967 31.5384 61.123 31.0566V32.502C60.5501 32.7493 60.0065 32.9251 59.4922 33.0293C58.9844 33.14 58.3691 33.1953 57.6465 33.1953ZM57.207 23.459C56.3477 23.459 55.6608 23.7389 55.1465 24.2988C54.6387 24.8587 54.3392 25.6335 54.248 26.623H59.8438C59.8438 25.6009 59.6159 24.8197 59.1602 24.2793C58.7044 23.7324 58.0534 23.459 57.207 23.459ZM71.6797 33V26.0762C71.6797 25.2038 71.4811 24.5527 71.084 24.123C70.6868 23.6934 70.0651 23.4785 69.2188 23.4785C68.099 23.4785 67.2786 23.7812 66.7578 24.3867C66.237 24.9922 65.9766 25.9915 65.9766 27.3848V33H64.3555V22.2969H65.6738L65.9375 23.7617H66.0156C66.3477 23.2344 66.8132 22.8275 67.4121 22.541C68.0111 22.248 68.6784 22.1016 69.4141 22.1016C70.7031 22.1016 71.6732 22.4141 72.3242 23.0391C72.9753 23.6576 73.3008 24.6504 73.3008 26.0176V33H71.6797ZM84.9414 29.2012C84.9414 30.4577 84.4857 31.4375 83.5742 32.1406C82.6628 32.8438 81.4258 33.1953 79.8633 33.1953C78.1706 33.1953 76.8685 32.9772 75.957 32.541V30.9395C76.543 31.1868 77.181 31.3822 77.8711 31.5254C78.5612 31.6686 79.2448 31.7402 79.9219 31.7402C81.0286 31.7402 81.862 31.5319 82.4219 31.1152C82.9818 30.6921 83.2617 30.1061 83.2617 29.3574C83.2617 28.8626 83.1608 28.459 82.959 28.1465C82.7637 27.8275 82.4316 27.5345 81.9629 27.2676C81.5007 27.0007 80.7943 26.6979 79.8438 26.3594C78.5156 25.8841 77.5651 25.321 76.9922 24.6699C76.4258 24.0189 76.1426 23.1693 76.1426 22.1211C76.1426 21.0208 76.556 20.1452 77.3828 19.4941C78.2096 18.8431 79.3034 18.5176 80.6641 18.5176C82.0833 18.5176 83.3887 18.778 84.5801 19.2988L84.0625 20.7441C82.8841 20.2493 81.7383 20.002 80.625 20.002C79.7461 20.002 79.0592 20.1908 78.5645 20.5684C78.0697 20.946 77.8223 21.4701 77.8223 22.1406C77.8223 22.6354 77.9134 23.0423 78.0957 23.3613C78.278 23.6738 78.584 23.9635 79.0137 24.2305C79.4499 24.4909 80.1139 24.7806 81.0059 25.0996C82.5033 25.6335 83.5319 26.2064 84.0918 26.8184C84.6582 27.4303 84.9414 28.2246 84.9414 29.2012ZM91.0742 31.8574C91.3607 31.8574 91.6374 31.8379 91.9043 31.7988C92.1712 31.7533 92.3828 31.7077 92.5391 31.6621V32.9023C92.3633 32.987 92.1029 33.0553 91.7578 33.1074C91.4193 33.166 91.1133 33.1953 90.8398 33.1953C88.7695 33.1953 87.7344 32.1048 87.7344 29.9238V23.5566H86.2012V22.7754L87.7344 22.1016L88.418 19.8164H89.3555V22.2969H92.4609V23.5566H89.3555V29.8555C89.3555 30.5 89.5085 30.9948 89.8145 31.3398C90.1204 31.6849 90.5404 31.8574 91.0742 31.8574ZM101.27 33L100.947 31.4766H100.869C100.335 32.1471 99.8014 32.6029 99.2676 32.8438C98.7402 33.0781 98.0794 33.1953 97.2852 33.1953C96.224 33.1953 95.3906 32.9219 94.7852 32.375C94.1862 31.8281 93.8867 31.0501 93.8867 30.041C93.8867 27.8796 95.6152 26.7467 99.0723 26.6426L100.889 26.584V25.9199C100.889 25.0801 100.706 24.4616 100.342 24.0645C99.9837 23.6608 99.4076 23.459 98.6133 23.459C97.7214 23.459 96.7122 23.7324 95.5859 24.2793L95.0879 23.0391C95.6152 22.7526 96.1914 22.528 96.8164 22.3652C97.4479 22.2025 98.0794 22.1211 98.7109 22.1211C99.987 22.1211 100.931 22.4043 101.543 22.9707C102.161 23.5371 102.471 24.4453 102.471 25.6953V33H101.27ZM97.6074 31.8574C98.6165 31.8574 99.4076 31.5807 99.9805 31.0273C100.56 30.474 100.85 29.6992 100.85 28.7031V27.7363L99.2285 27.8047C97.9395 27.8503 97.0085 28.0521 96.4355 28.4102C95.8691 28.7617 95.5859 29.3118 95.5859 30.0605C95.5859 30.6465 95.7617 31.0924 96.1133 31.3984C96.4714 31.7044 96.9694 31.8574 97.6074 31.8574ZM113.145 33V26.0762C113.145 25.2038 112.946 24.5527 112.549 24.123C112.152 23.6934 111.53 23.4785 110.684 23.4785C109.564 23.4785 108.743 23.7812 108.223 24.3867C107.702 24.9922 107.441 25.9915 107.441 27.3848V33H105.82V22.2969H107.139L107.402 23.7617H107.48C107.812 23.2344 108.278 22.8275 108.877 22.541C109.476 22.248 110.143 22.1016 110.879 22.1016C112.168 22.1016 113.138 22.4141 113.789 23.0391C114.44 23.6576 114.766 24.6504 114.766 26.0176V33H113.145ZM127.344 27.6387C127.344 29.3835 126.904 30.7474 126.025 31.7305C125.146 32.707 123.932 33.1953 122.383 33.1953C121.426 33.1953 120.576 32.9707 119.834 32.5215C119.092 32.0723 118.519 31.4277 118.115 30.5879C117.712 29.748 117.51 28.765 117.51 27.6387C117.51 25.8939 117.946 24.5365 118.818 23.5664C119.691 22.5898 120.902 22.1016 122.451 22.1016C123.949 22.1016 125.137 22.5996 126.016 23.5957C126.901 24.5918 127.344 25.9395 127.344 27.6387ZM119.189 27.6387C119.189 29.0059 119.463 30.0475 120.01 30.7637C120.557 31.4798 121.361 31.8379 122.422 31.8379C123.483 31.8379 124.287 31.4831 124.834 30.7734C125.387 30.0573 125.664 29.0124 125.664 27.6387C125.664 26.278 125.387 25.2461 124.834 24.543C124.287 23.8333 123.477 23.4785 122.402 23.4785C121.341 23.4785 120.54 23.8268 120 24.5234C119.46 25.2201 119.189 26.2585 119.189 27.6387ZM131.797 27.5215C132.077 27.1243 132.503 26.6035 133.076 25.959L136.533 22.2969H138.457L134.121 26.8574L138.76 33H136.797L133.018 27.9414L131.797 28.9961V33H130.195V17.8047H131.797V25.8613C131.797 26.2194 131.771 26.7728 131.719 27.5215H131.797Z" fill="#C4C4C4"/>
<path fill-rule="evenodd" clip-rule="evenodd" d="M3.625 27.5421V27.5976H19.7322V23.7307H8.1455L3.625 27.5421Z" fill="black" fill-opacity="0.6"/>
<path d="M3.62317 27.5938V0.0161743H8.1099V23.7269H19.7303V27.5938H3.62317Z" fill="#2177A8" fill-opacity="0.6"/>
<path fill-rule="evenodd" clip-rule="evenodd" d="M12.7595 23.6691H19.7255C18.9827 23.3201 18.4164 23.0174 18.0267 22.7612C17.3384 22.3084 16.8441 21.8306 16.5436 21.3276C16.2433 20.8119 16.0931 20.1958 16.0931 19.4789C16.0931 18.4352 16.4686 17.599 17.2195 16.9702C17.9705 16.3288 19.0718 16.0082 20.5236 16.0082C22.4384 16.0082 24.6161 16.5237 27.0566 17.555L28.4833 13.8767C25.8801 12.7198 23.2644 12.1413 20.6361 12.1413C17.8953 12.1413 15.7114 12.8014 14.0845 14.1219C12.4575 15.4423 11.644 17.2531 11.644 19.5544C11.644 21.1173 12.0158 22.489 12.7595 23.6691Z" fill="#2177A8" fill-opacity="0.51"/>
<path d="M28.8958 32.5776C28.8958 35.0298 28.0134 36.9539 26.2487 38.3497C24.4841 39.7456 22.0499 40.4435 18.9461 40.4435C15.8422 40.4435 13.3017 39.9594 11.3243 38.9911V34.728C12.5758 35.3191 13.9024 35.7843 15.3041 36.1238C16.7184 36.4634 18.0325 36.6331 19.2464 36.6331C21.0236 36.6331 22.3314 36.2936 23.17 35.6146C24.021 34.9355 24.4466 34.0238 24.4466 32.8795C24.4466 31.8482 24.0586 30.9743 23.2826 30.2575C22.5066 29.5407 20.9047 28.6918 18.4767 27.711C15.9737 26.6924 14.209 25.5291 13.1828 24.2213C12.1565 22.9135 11.6434 21.3416 11.6434 19.5056C11.6434 17.2043 12.4569 15.3935 14.0839 14.0731C15.7109 12.7527 17.8948 12.0925 20.6356 12.0925C23.2638 12.0925 25.8795 12.671 28.4827 13.8278L27.056 17.5061C24.6155 16.4749 22.4379 15.9594 20.523 15.9594C19.0712 15.9594 17.9699 16.28 17.219 16.9214C16.468 17.5501 16.0926 18.3864 16.0926 19.4301C16.0926 20.1469 16.2427 20.7631 16.5432 21.2787C16.8435 21.7817 17.3378 22.2596 18.0262 22.7123C18.7146 23.165 19.9535 23.7624 21.7432 24.5043C23.7582 25.3468 25.2351 26.1328 26.1737 26.8621C27.1123 27.5915 27.8007 28.4152 28.2386 29.3332C28.6767 30.2512 28.8958 31.3327 28.8958 32.5776Z" fill="black" fill-opacity="0.35"/>
</svg>
